<svg width="24" height="24" viewBox="0 0 24 24" fill="none" xmlns="http://www.w3.org/2000/svg">
<path d="M7.79289 14.7929L7.08579 15.5L8.5 16.9142L9.20711 16.2071L7.79289 14.7929ZM16.2071 9.20708L16.9142 8.49998L15.5 7.08576L14.7929 7.79287L16.2071 9.20708ZM8 4V5H10V4H8ZM10 2V1H8V2H10ZM16 20V19H14V20H16ZM14 22V23H16V22H14ZM4 10H5V8H4V10ZM2 8H1V10H2V8ZM20 14H19V16H20V14ZM22 16H23V14H22V16ZM4.20711 5.62132L4.91421 6.32843L6.32843 4.91421L5.62132 4.20711L4.20711 5.62132ZM4.20711 2.79289L3.5 2.08579L2.08579 3.5L2.79289 4.20711L4.20711 2.79289ZM19.7929 18.3786L19.0858 17.6715L17.6716 19.0857L18.3787 19.7928L19.7929 18.3786ZM19.7929 21.207L20.5 21.9141L21.9142 20.4999L21.2071 19.7928L19.7929 21.207ZM12.7071 18.3639L13.4142 17.6568L12 16.2426L11.2929 16.9497L12.7071 18.3639ZM9.87871 19.7781L9.17161 19.071L9.17161 19.071L9.87871 19.7781ZM4.22186 14.1212L4.92897 14.8283L4.22186 14.1212ZM7.05029 12.707L7.75739 11.9999L6.34318 10.5857L5.63607 11.2928L7.05029 12.707ZM16.9498 11.2928C16.5593 11.6833 16.5593 12.3165 16.9498 12.707C17.3403 13.0975 17.9735 13.0975 18.364 12.707L16.9498 11.2928ZM19.7782 9.87859L20.4853 10.5857L20.4853 10.5857L19.7782 9.87859ZM14.1214 4.22174L13.4142 3.51463L13.4142 3.51463L14.1214 4.22174ZM11.2929 5.63595C10.9024 6.02648 10.9024 6.65964 11.2929 7.05016C11.6835 7.44069 12.3166 7.44069 12.7071 7.05016L11.2929 5.63595ZM19.7782 4.22174L20.4853 3.51463L20.4853 3.51463L19.7782 4.22174ZM4.22186 19.7781L4.92897 19.071L4.92897 19.071L4.22186 19.7781ZM8.5 15.5L9.20711 16.2071L16.2071 9.20708L15.5 8.49998L14.7929 7.79287L7.79289 14.7929L8.5 15.5ZM9 4H10V2H9H8V4H9ZM15 20H14V22H15H16V20H15ZM4 9V8H2V9V10H4V9ZM20 15V16H22V15V14H20V15ZM4.91421 4.91421L5.62132 4.20711L4.20711 2.79289L3.5 3.5L2.79289 4.20711L4.20711 5.62132L4.91421 4.91421ZM19.0858 19.0857L18.3787 19.7928L19.7929 21.207L20.5 20.4999L21.2071 19.7928L19.7929 18.3786L19.0858 19.0857ZM12 17.6568L11.2929 16.9497L9.17161 19.071L9.87871 19.7781L10.5858 20.4852L12.7071 18.3639L12 17.6568ZM4.22186 14.1212L4.92897 14.8283L7.05029 12.707L6.34318 11.9999L5.63607 11.2928L3.51475 13.4141L4.22186 14.1212ZM17.6569 11.9999L18.364 12.707L20.4853 10.5857L19.7782 9.87859L19.0711 9.17148L16.9498 11.2928L17.6569 11.9999ZM14.1214 4.22174L13.4142 3.51463L11.2929 5.63595L12 6.34306L12.7071 7.05016L14.8285 4.92884L14.1214 4.22174ZM19.7782 9.87859L20.4853 10.5857C22.4379 8.63308 22.4379 5.46725 20.4853 3.51463L19.7782 4.22174L19.0711 4.92884C20.2427 6.10042 20.2427 7.99991 19.0711 9.17149L19.7782 9.87859ZM4.22186 19.7781L4.92897 19.071C3.75739 17.8994 3.75739 15.9999 4.92897 14.8283L4.22186 14.1212L3.51475 13.4141C1.56213 15.3667 1.56213 18.5326 3.51475 20.4852L4.22186 19.7781ZM19.7782 4.22174L20.4853 3.51463C18.5327 1.56201 15.3669 1.56201 13.4142 3.51463L14.1214 4.22174L14.8285 4.92884C16 3.75727 17.8995 3.75727 19.0711 4.92884L19.7782 4.22174ZM9.87871 19.7781L9.17161 19.071C8.00003 20.2426 6.10054 20.2426 4.92897 19.071L4.22186 19.7781L3.51475 20.4852C5.46737 22.4378 8.6332 22.4378 10.5858 20.4852L9.87871 19.7781Z" fill="#64748B"/>
</svg>
