<svg width="24" height="24" viewBox="0 0 24 24" fill="none" xmlns="http://www.w3.org/2000/svg">
<path d="M15.0505 10C15.6028 10 16.0505 9.55228 16.0505 9C16.0505 8.44772 15.6028 8 15.0505 8V10ZM15.0505 5C15.6028 5 16.0505 4.55228 16.0505 4C16.0505 3.44772 15.6028 3 15.0505 3V5ZM8.94949 19H7.94949V21H8.94949V19ZM8.94949 14H7.94949V16H8.94949V14ZM15.0505 9V8H5.5V9V10H15.0505V9ZM5.5 4V5H15.0505V4V3H5.5V4ZM3 6.5H4C4 5.67157 4.67157 5 5.5 5V4V3C3.567 3 2 4.567 2 6.5H3ZM5.5 9V8C4.67157 8 4 7.32843 4 6.5H3H2C2 8.433 3.567 10 5.5 10V9ZM8.94949 20V21H18.5V20V19H8.94949V20ZM18.5 15V14H8.94949V15V16H18.5V15ZM21 17.5H22C22 15.567 20.433 14 18.5 14V15V16C19.3284 16 20 16.6716 20 17.5H21ZM18.5 20V21C20.433 21 22 19.433 22 17.5H21H20C20 18.3284 19.3284 19 18.5 19V20ZM3 17.5H2C2 19.9853 4.01472 22 6.5 22V21V20C5.11929 20 4 18.8807 4 17.5H3ZM6.5 21V22C8.98528 22 11 19.9853 11 17.5H10H9C9 18.8807 7.88071 20 6.5 20V21ZM10 17.5H11C11 15.0147 8.98528 13 6.5 13V14V15C7.88071 15 9 16.1193 9 17.5H10ZM6.5 14V13C4.01472 13 2 15.0147 2 17.5H3H4C4 16.1193 5.11929 15 6.5 15V14ZM21 6.5H20C20 7.88071 18.8807 9 17.5 9V10V11C19.9853 11 22 8.98528 22 6.5H21ZM17.5 10V9C16.1193 9 15 7.88071 15 6.5H14H13C13 8.98528 15.0147 11 17.5 11V10ZM14 6.5H15C15 5.11929 16.1193 4 17.5 4V3V2C15.0147 2 13 4.01472 13 6.5H14ZM17.5 3V4C18.8807 4 20 5.11929 20 6.5H21H22C22 4.01472 19.9853 2 17.5 2V3Z" fill="#64748B"/>
</svg>
