<svg id="Layer_1" data-name="Layer 1" xmlns="http://www.w3.org/2000/svg" viewBox="0 0 128 128"><defs><style>.cls-1{fill:#fff;}.cls-2{fill:#ff5c00;}.cls-3{fill:#006aff;}</style></defs><path class="cls-1" d="M65.62,103.22a85.18,85.18,0,0,1-11.31-.66c-3.19-.44-6.3-1.08-6.3-3.53V80.23a2.79,2.79,0,0,1,2-2.55l-4.18-2.91a11.16,11.16,0,0,1-4.76-9.21l0-4.44a6.14,6.14,0,0,1,3.16-5.44c-.05-.11-.09-.22-.13-.33a5.72,5.72,0,0,1,1.21-5.71,15.76,15.76,0,0,1,8.76-4.78l7.19-1.33a8.52,8.52,0,0,1,1.42-.13h0c-2.3-3.88-4.62-7.8-4.86-8.18a6.15,6.15,0,0,1,1.58-8.16,6.17,6.17,0,0,1,8.81,1.49,6.12,6.12,0,0,1,5-3.73,5.48,5.48,0,0,1,.7,0,6.13,6.13,0,0,1,6.16,6v.69a5.68,5.68,0,0,1,.59,0,6.06,6.06,0,0,1,2.34.46,6.16,6.16,0,0,1,3.17,8.49c-1,1.94-3.35,6.53-5.34,10.37a9.18,9.18,0,0,1,.77,5.88L78.32,73.06V76.9c2.68.47,4.92,1.27,4.92,3.33V99c0,2.45-3.11,3.09-6.3,3.53A85.23,85.23,0,0,1,65.62,103.22ZM53.32,58a8,8,0,0,1,1.77,5v.28a.51.51,0,0,0,.35.49,3.3,3.3,0,0,0,1,.17,3.25,3.25,0,0,0,0-6.5H56.2l-.42,0A9,9,0,0,0,53.32,58Z"/><ellipse cx="65.62" cy="80.23" rx="15.6" ry="2.18"/><path class="cls-2" d="M82.31,33.73h0a4.17,4.17,0,0,0-4.27.68l.1-3.6a4.16,4.16,0,0,0-8.32.21c0,.4,0,2.25,0,4.26l-3.13-5.5a4.16,4.16,0,0,0-6-1.11h0a4.16,4.16,0,0,0-1.06,5.5c.46.75,8.06,13.6,8.06,13.6l-1.19-1a5.87,5.87,0,0,0-4.82-1.27l-7.2,1.33A13.61,13.61,0,0,0,46.84,51h0a3.69,3.69,0,0,0,2.09,6.14h0a3.74,3.74,0,0,0,2.28-.35l.33-.17a11.07,11.07,0,0,1,4.09-1.14l.42,0a5.26,5.26,0,0,1,5.66,5.24h0a5.27,5.27,0,0,1-6.89,5h0a2.52,2.52,0,0,1-1.74-2.41V63a6.32,6.32,0,0,0-4.95-6h0a4.1,4.1,0,0,0-5,4.1l0,4.44A9.13,9.13,0,0,0,47,73.12l7.93,5.53v4.54H76.31V72.86L79.7,56.2a7.16,7.16,0,0,0-.79-4.94l-.29-.5c2.23-4.3,4.79-9.26,5.83-11.31A4.17,4.17,0,0,0,82.31,33.73Z"/><path d="M70,35.29h-.41c0-1.52.07-3.43.05-4.25H70C70,31.85,70,33.77,70,35.29Z"/><path d="M77.83,49h-.4l.51-18.2A3.92,3.92,0,0,0,76.58,28a4,4,0,0,0-3-.94l0-.4a4.34,4.34,0,0,1,4.84,4.18Z"/><path d="M78.8,50.86l-.35-.19c2.07-4,4.76-9.21,5.82-11.31a4,4,0,0,0-6.1-4.8l-.26-.31a4.36,4.36,0,0,1,6.72,5.29C83.57,41.64,80.87,46.85,78.8,50.86Z"/><path d="M67.51,47.87l-4-6.77.34-.21,4,6.78Z"/><path d="M76.51,83.39H54.74V78.76L46.9,73.28a9.33,9.33,0,0,1-4-7.71h.4A8.92,8.92,0,0,0,47.13,73l8,5.6V83h21V72.84L79.5,56.16a6.93,6.93,0,0,0-.77-4.8L66.52,29.88a3.91,3.91,0,0,0-2.62-1.77,4,4,0,0,0-3.1.72l-.24-.32a4.35,4.35,0,0,1,6.3,1.16l12.22,21.5a7.23,7.23,0,0,1,.81,5.07L76.51,72.88Z"/><path d="M54.76,65.9a2.71,2.71,0,0,1-1.88-2.6V63a6.11,6.11,0,0,0-4.79-5.78,4,4,0,0,0-3.63,1.05L44.17,58a4.37,4.37,0,0,1,4-1.16A6.51,6.51,0,0,1,53.28,63v.29a2.31,2.31,0,0,0,1.6,2.21Z"/><path d="M61.91,60.7h-.4a5.05,5.05,0,0,0-5.44-5l-.42,0a10.83,10.83,0,0,0-4,1.12L51.3,57a3.89,3.89,0,0,1-4.61-6.11l.3.27A3.49,3.49,0,0,0,49,57a3.48,3.48,0,0,0,2.15-.33l.33-.17a11,11,0,0,1,4.17-1.16l.42,0a5.46,5.46,0,0,1,5.87,5.44Z"/><path d="M73.76,53.11l-7.4-6.18a5.63,5.63,0,0,0-4.65-1.22l-2.58.48-.07-.4,2.58-.48a6.06,6.06,0,0,1,5,1.31L74,52.8Z"/><ellipse class="cls-3" cx="65.62" cy="99.03" rx="15.6" ry="2.18"/><path class="cls-3" d="M65.62,82.41c-8.61,0-15.6-1-15.6-2.18V99H81.23V80.23C81.23,81.44,74.24,82.41,65.62,82.41Z"/><circle class="cls-1" cx="76.26" cy="87.57" r="2.05"/><circle class="cls-1" cx="76.26" cy="95.27" r="2.05"/></svg>