<svg id="Layer_1" data-name="Layer 1" xmlns="http://www.w3.org/2000/svg" viewBox="0 0 128 128"><defs><style>.cls-1{fill:#fff;}.cls-2{fill:#006aff;}.cls-3{fill:#ff5c00;}</style></defs><path class="cls-1" d="M63.25,106.29a85,85,0,0,1-11.31-.66c-3.19-.44-6.31-1.09-6.31-3.53V83.3c0-2,2-2.76,4.42-3.23l-4.81-5.88a8.09,8.09,0,0,1-1.68-6.68L45,60.19a8.19,8.19,0,0,1,.34-1.62,7.74,7.74,0,0,1,3.27-4.2c-.36-1.41-1-3.9-2.1-8.34-1.21-4.8-2.77-11-3.35-13.44a6.53,6.53,0,0,1,5.32-8,7,7,0,0,1,1-.08,6.51,6.51,0,0,1,6.31,4.9C56,29.91,57.56,36,59,41.6l2.21-14.27a6.54,6.54,0,0,1,6.46-5.62H68A6.51,6.51,0,0,1,74.17,29c-.32,2.5-1.16,8.55-1.9,13.83a9.3,9.3,0,0,1,6.08,5,9.37,9.37,0,0,1,5.83,5.56c2.11,5-.13,9.39-2.43,13.64a21.31,21.31,0,0,1-5.25,13c2.42.48,4.36,1.3,4.36,3.22v18.8c0,2.44-3.11,3.09-6.3,3.53A85.07,85.07,0,0,1,63.25,106.29Z"/><ellipse cx="63.25" cy="83.3" rx="15.6" ry="2.18"/><ellipse class="cls-2" cx="63.25" cy="102.1" rx="15.6" ry="2.18"/><path class="cls-3" d="M82.33,54.23a7.36,7.36,0,0,0-5.42-4.65c0-.06,0-.12-.08-.19A7.41,7.41,0,0,0,70,44.56c.79-5.6,1.82-13,2.17-15.77a4.5,4.5,0,0,0-4.27-5.06h0a4.51,4.51,0,0,0-4.68,3.88c-.13.89-3.34,21.57-3.68,23.76h0s-5.4-20.53-5.63-21.45a4.52,4.52,0,0,0-5.09-3.33h0a4.51,4.51,0,0,0-3.68,5.51C46.24,36.78,51,55.48,51,55.48a5.7,5.7,0,0,0-3.71,3.71h0A5.88,5.88,0,0,0,47,60.48L45.54,67.9a6.08,6.08,0,0,0,1.25,5l5.46,6.67V86H74v-6.2s5.77-5.28,5.77-13.24C82,62.35,84.12,58.46,82.33,54.23Z"/><path d="M69.64,66.06a4.72,4.72,0,0,1-4.18-6.91c.35-.66,1-2,1.76-3.54l.36.17c-.72,1.55-1.42,2.9-1.76,3.56a4.31,4.31,0,0,0,4.88,6.18,4.21,4.21,0,0,0,2.72-2.11c2.54-4.67,4.9-10,3.23-13.94A7.24,7.24,0,0,0,70,44.76v-.4a7.62,7.62,0,0,1,7,5c1.74,4.12-.66,9.54-3.24,14.29a4.72,4.72,0,0,1-3,2.31A4.56,4.56,0,0,1,69.64,66.06Z"/><path d="M75.79,69.12a4.71,4.71,0,0,1-4.57-3.52l.39-.11a4.31,4.31,0,0,0,8,1c2.23-4.11,4.34-8,2.57-12.16a7.13,7.13,0,0,0-5.27-4.53l.08-.39a7.49,7.49,0,0,1,5.56,4.77c1.84,4.34-.31,8.31-2.59,12.5a4.71,4.71,0,0,1-3,2.32A5,5,0,0,1,75.79,69.12Z"/><path d="M60.88,41.43c-.59,3.84-1.15,7.36-1.41,9-1-3.95-5.19-19.76-5.4-20.56a4.69,4.69,0,0,0-5.31-3.48l.06.4A4.28,4.28,0,0,1,53.68,30c.23.91,5.82,22.1,5.87,22.31,0,0,.91-5.49,1.73-10.8Z"/><path d="M69.21,51.59l-.4-.06c0-.18,2.57-18.06,3.16-22.76a4.23,4.23,0,0,0-1-3.31,4.29,4.29,0,0,0-3.1-1.53v-.41a4.72,4.72,0,0,1,4.47,5.3C71.78,33.52,69.23,51.41,69.21,51.59Z"/><path d="M58.28,68.7a6.55,6.55,0,0,1-2.15-.35l-5.35-1.81.13-.38L56.26,68a7,7,0,0,0,8.08-3.07,4.47,4.47,0,0,0-2.49-6.64l-7.29-2.53a5.52,5.52,0,0,0-7.12,3.52l-.38-.12a5.92,5.92,0,0,1,7.63-3.78L62,57.88a4.89,4.89,0,0,1,2.71,7.22A7.47,7.47,0,0,1,58.28,68.7Z"/><path d="M74.18,86.21H52.05V79.65L46.64,73l.31-.25,5.5,6.72v6.3H73.78V79.72l.07-.06c.05,0,5.7-5.32,5.7-13.09H80c0,7.5-5.12,12.71-5.77,13.33Z"/><path class="cls-2" d="M63.25,85.48c-8.62,0-15.61-1-15.61-2.18v18.8H78.85V83.3C78.85,84.5,71.87,85.48,63.25,85.48Z"/><circle class="cls-1" cx="73.88" cy="90.64" r="2.05"/><circle class="cls-1" cx="73.88" cy="98.34" r="2.05"/></svg>