<svg id="Layer_1" data-name="Layer 1" xmlns="http://www.w3.org/2000/svg" viewBox="0 0 128 128"><defs><style>.cls-1{fill:#fff;}.cls-2{fill:#ff5c00;}.cls-3{fill:#006aff;}</style></defs><path class="cls-1" d="M48.19,97.36c-.91,0-2.31-.39-5.79-3.28a89.6,89.6,0,0,1-7.65-7.33,85.64,85.64,0,0,1-7.27-8.69c-1.86-2.63-3.52-5.34-1.74-7l13.7-12.87a2.43,2.43,0,0,1,1.68-.64,3.43,3.43,0,0,1,1.38.3,7.72,7.72,0,0,1,2.2-5.34l.22-.25a6.09,6.09,0,0,0,1.51-2.51c.84-3.14-.71-7.45-2-10.91q-.24-.69-.48-1.35a5.14,5.14,0,0,1,4.8-6.83h.12A12.83,12.83,0,0,1,61.4,40.09a7.86,7.86,0,0,1,.19.89l4.3-3.3A8.43,8.43,0,0,1,71,35.94a8.07,8.07,0,0,1,5.28,2,7.27,7.27,0,0,1,.79.78,9.27,9.27,0,0,1,5.2,2.93,9.22,9.22,0,0,1,3.39,1.48l6.66-6.58a6.32,6.32,0,0,1,8.84,9c-.79.86-11.2,13.48-18,21.8l0,0,0,0C74.68,76.6,67,77.76,64.25,77.86l-1.16.89c1.16,1.91,1.84,3.82.48,5.1L49.87,96.72A2.47,2.47,0,0,1,48.19,97.36Z"/><ellipse cx="51.5" cy="71.01" rx="2.18" ry="15.6" transform="translate(-34.65 54.52) rotate(-43.21)"/><path class="cls-2" d="M100,38.33h0A4.3,4.3,0,0,0,93.71,38l-8,7.92a6.89,6.89,0,0,0-4.54-2.42A7.36,7.36,0,0,0,76,40.53a5.82,5.82,0,0,0-1-1.12,6.23,6.23,0,0,0-7.85-.13l-7.53,5.78a10,10,0,0,0-.12-4.46,10.85,10.85,0,0,0-10.65-8h0a3.13,3.13,0,0,0-2.92,4.16c1.42,4,3.61,9.24,2.48,13.44a8.37,8.37,0,0,1-2.15,3.55c-1.36,1.59-2.52,3.19-1,8.3l-4.12,3.61,14.79,16,7.64-5.87s8.53.62,18-9.8c0,0,17.51-21.29,18.15-21.93A4.3,4.3,0,0,0,100,38.33Z"/><ellipse class="cls-3" cx="37.81" cy="83.88" rx="2.18" ry="15.6" transform="translate(-47.18 48.63) rotate(-43.21)"/><path d="M76.81,64.52a4.12,4.12,0,0,1-2.89-1.19,4,4,0,0,1-1-1.51l.38-.13A3.5,3.5,0,0,0,74.21,63a3.66,3.66,0,0,0,5.38-.2c3.92-4.59,7.88-10.65,7.25-13.89a6.17,6.17,0,0,0-2.9-4.36l.2-.34a6.5,6.5,0,0,1,3.09,4.62c.83,4.26-5.4,12-7.33,14.23A4,4,0,0,1,77,64.52Z"/><path d="M72.24,62.06a4.41,4.41,0,0,1-4.38-3.86l.4-.05a3.93,3.93,0,0,0,1.16,2.35,4,4,0,0,0,3,1.15,3.92,3.92,0,0,0,2.87-1.41c5.18-6.16,7.5-10.79,6.9-13.78a6.88,6.88,0,0,0-2.43-4.21l.25-.32a7.29,7.29,0,0,1,2.58,4.45c.62,3.11-1.73,7.86-7,14.12a4.45,4.45,0,0,1-3.16,1.56Z"/><rect x="58.87" y="42.76" width="6.87" height="0.4" transform="translate(-13.28 46.83) rotate(-37.52)"/><path d="M67.41,58.42a4.24,4.24,0,0,1-3.29-6.92l4.27-5.81a5.39,5.39,0,0,0,1-3.6l.4,0a5.78,5.78,0,0,1-1.1,3.88l-4.27,5.82a3.82,3.82,0,0,0,.27,5.16A3.9,3.9,0,0,0,67.59,58a3.81,3.81,0,0,0,2.75-1.36c5-5.91,7.2-10.36,6.62-13.23a6.64,6.64,0,0,0-2.13-3.87l.26-.3a7.09,7.09,0,0,1,2.27,4.09c.6,3-1.66,7.56-6.71,13.57a4.27,4.27,0,0,1-3,1.5Z"/><path d="M59.73,57.25l-.3-.27c3.67-4.09,0-11.76,0-11.83l0-.07,0-.08a9.66,9.66,0,0,0-.13-4.35,10.61,10.61,0,0,0-10.45-7.8v-.4h.1a11,11,0,0,1,10.74,8.1A10.09,10.09,0,0,1,59.79,45a19.89,19.89,0,0,1,1.41,4.42C61.84,52.77,61.33,55.46,59.73,57.25Z"/><path d="M46.38,53.93l-.31-.26c.07-.08.14-.15.21-.24a7.75,7.75,0,0,0,1.9-3.23,9.89,9.89,0,0,0,.29-3l.41,0a10.43,10.43,0,0,1-.31,3.08,8.13,8.13,0,0,1-2,3.39Z"/><path d="M55.89,82l-15-16.3L45,62a14.69,14.69,0,0,1-.71-3.8h.4A15.28,15.28,0,0,0,45.44,62l0,.13-4.06,3.56L55.94,81.45l7.56-5.81h.08c.08,0,8.54.48,17.84-9.74.71-.86,17.52-21.3,18.16-21.93a4.09,4.09,0,0,0,.29-5.52l.31-.26a4.49,4.49,0,0,1-.32,6.06c-.63.62-18,21.7-18.13,21.92-9,9.84-17.21,9.9-18.1,9.87Z"/><path class="cls-3" d="M49.91,72.5c-5.9-6.28-10-12-9.09-12.86L27.12,72.51,48.49,95.25l13.7-12.87C61.31,83.21,55.81,78.79,49.91,72.5Z"/><circle class="cls-1" cx="53.44" cy="83.79" r="2.05"/><circle class="cls-1" cx="47.82" cy="89.06" r="2.05"/></svg>